<mxfile host="app.diagrams.net" modified="2024-04-26T05:35:22.767Z" agent="Mozilla/5.0 (Windows NT 10.0; Win64; x64) AppleWebKit/537.36 (KHTML, like Gecko) Chrome/124.0.0.0 Safari/537.36" etag="SAEc_xLkfCz4H_y8CCvQ" version="24.1.0" type="github">
  <diagram id="C5RBs43oDa-KdzZeNtuy" name="Page-1">
    <mxGraphModel dx="1050" dy="1691" grid="1" gridSize="10" guides="1" tooltips="1" connect="1" arrows="1" fold="1" page="1" pageScale="1" pageWidth="827" pageHeight="1169" math="0" shadow="0">
      <root>
        <mxCell id="WIyWlLk6GJQsqaUBKTNV-0" />
        <mxCell id="WIyWlLk6GJQsqaUBKTNV-1" parent="WIyWlLk6GJQsqaUBKTNV-0" />
        <mxCell id="Tss-41l0JrVJTf4lP66e-5" value="" style="edgeStyle=orthogonalEdgeStyle;rounded=0;orthogonalLoop=1;jettySize=auto;html=1;" parent="WIyWlLk6GJQsqaUBKTNV-1" source="Tss-41l0JrVJTf4lP66e-1" target="Tss-41l0JrVJTf4lP66e-4" edge="1">
          <mxGeometry relative="1" as="geometry" />
        </mxCell>
        <mxCell id="Tss-41l0JrVJTf4lP66e-6" value="" style="edgeStyle=orthogonalEdgeStyle;rounded=0;orthogonalLoop=1;jettySize=auto;html=1;" parent="WIyWlLk6GJQsqaUBKTNV-1" source="Tss-41l0JrVJTf4lP66e-1" target="Tss-41l0JrVJTf4lP66e-4" edge="1">
          <mxGeometry relative="1" as="geometry" />
        </mxCell>
        <mxCell id="Tss-41l0JrVJTf4lP66e-8" value="" style="edgeStyle=orthogonalEdgeStyle;rounded=0;orthogonalLoop=1;jettySize=auto;html=1;" parent="WIyWlLk6GJQsqaUBKTNV-1" source="Tss-41l0JrVJTf4lP66e-1" target="Tss-41l0JrVJTf4lP66e-7" edge="1">
          <mxGeometry relative="1" as="geometry" />
        </mxCell>
        <mxCell id="Tss-41l0JrVJTf4lP66e-1" value="Given" style="rounded=0;whiteSpace=wrap;html=1;" parent="WIyWlLk6GJQsqaUBKTNV-1" vertex="1">
          <mxGeometry x="320" y="70" width="120" height="60" as="geometry" />
        </mxCell>
        <mxCell id="Tss-41l0JrVJTf4lP66e-66" style="edgeStyle=orthogonalEdgeStyle;rounded=0;orthogonalLoop=1;jettySize=auto;html=1;exitX=0.5;exitY=1;exitDx=0;exitDy=0;entryX=0.5;entryY=0;entryDx=0;entryDy=0;" parent="WIyWlLk6GJQsqaUBKTNV-1" source="Tss-41l0JrVJTf4lP66e-2" target="Tss-41l0JrVJTf4lP66e-22" edge="1">
          <mxGeometry relative="1" as="geometry">
            <Array as="points">
              <mxPoint x="700" y="170" />
              <mxPoint x="640" y="170" />
            </Array>
          </mxGeometry>
        </mxCell>
        <mxCell id="Tss-41l0JrVJTf4lP66e-67" style="edgeStyle=orthogonalEdgeStyle;rounded=0;orthogonalLoop=1;jettySize=auto;html=1;exitX=0.5;exitY=1;exitDx=0;exitDy=0;entryX=0.5;entryY=0;entryDx=0;entryDy=0;" parent="WIyWlLk6GJQsqaUBKTNV-1" source="Tss-41l0JrVJTf4lP66e-2" target="Tss-41l0JrVJTf4lP66e-23" edge="1">
          <mxGeometry relative="1" as="geometry" />
        </mxCell>
        <mxCell id="Tss-41l0JrVJTf4lP66e-2" value="Taken" style="whiteSpace=wrap;html=1;rounded=0;" parent="WIyWlLk6GJQsqaUBKTNV-1" vertex="1">
          <mxGeometry x="640" y="70" width="120" height="60" as="geometry" />
        </mxCell>
        <mxCell id="Tss-41l0JrVJTf4lP66e-10" value="" style="edgeStyle=orthogonalEdgeStyle;rounded=0;orthogonalLoop=1;jettySize=auto;html=1;" parent="WIyWlLk6GJQsqaUBKTNV-1" source="Tss-41l0JrVJTf4lP66e-4" target="Tss-41l0JrVJTf4lP66e-9" edge="1">
          <mxGeometry relative="1" as="geometry" />
        </mxCell>
        <mxCell id="Tss-41l0JrVJTf4lP66e-4" value="Relatives" style="rounded=0;whiteSpace=wrap;html=1;" parent="WIyWlLk6GJQsqaUBKTNV-1" vertex="1">
          <mxGeometry x="140" y="210" width="120" height="60" as="geometry" />
        </mxCell>
        <mxCell id="Tss-41l0JrVJTf4lP66e-69" style="edgeStyle=orthogonalEdgeStyle;rounded=0;orthogonalLoop=1;jettySize=auto;html=1;exitX=0.5;exitY=1;exitDx=0;exitDy=0;entryX=1;entryY=0.5;entryDx=0;entryDy=0;" parent="WIyWlLk6GJQsqaUBKTNV-1" source="Tss-41l0JrVJTf4lP66e-7" target="Tss-41l0JrVJTf4lP66e-9" edge="1">
          <mxGeometry relative="1" as="geometry" />
        </mxCell>
        <mxCell id="Tss-41l0JrVJTf4lP66e-7" value="Others" style="rounded=0;whiteSpace=wrap;html=1;" parent="WIyWlLk6GJQsqaUBKTNV-1" vertex="1">
          <mxGeometry x="320" y="210" width="120" height="60" as="geometry" />
        </mxCell>
        <mxCell id="Tss-41l0JrVJTf4lP66e-12" value="" style="edgeStyle=orthogonalEdgeStyle;rounded=0;orthogonalLoop=1;jettySize=auto;html=1;" parent="WIyWlLk6GJQsqaUBKTNV-1" source="Tss-41l0JrVJTf4lP66e-38" target="Tss-41l0JrVJTf4lP66e-11" edge="1">
          <mxGeometry relative="1" as="geometry" />
        </mxCell>
        <mxCell id="Tss-41l0JrVJTf4lP66e-14" value="" style="edgeStyle=orthogonalEdgeStyle;rounded=0;orthogonalLoop=1;jettySize=auto;html=1;exitX=1;exitY=0.5;exitDx=0;exitDy=0;" parent="WIyWlLk6GJQsqaUBKTNV-1" source="Tss-41l0JrVJTf4lP66e-38" target="Tss-41l0JrVJTf4lP66e-13" edge="1">
          <mxGeometry relative="1" as="geometry" />
        </mxCell>
        <mxCell id="Tss-41l0JrVJTf4lP66e-39" value="" style="edgeStyle=orthogonalEdgeStyle;rounded=0;orthogonalLoop=1;jettySize=auto;html=1;" parent="WIyWlLk6GJQsqaUBKTNV-1" source="Tss-41l0JrVJTf4lP66e-9" target="Tss-41l0JrVJTf4lP66e-38" edge="1">
          <mxGeometry relative="1" as="geometry" />
        </mxCell>
        <mxCell id="Tss-41l0JrVJTf4lP66e-9" value="Members" style="ellipse;whiteSpace=wrap;html=1;rounded=0;" parent="WIyWlLk6GJQsqaUBKTNV-1" vertex="1">
          <mxGeometry x="160" y="340" width="80" height="80" as="geometry" />
        </mxCell>
        <mxCell id="Tss-41l0JrVJTf4lP66e-16" value="" style="edgeStyle=orthogonalEdgeStyle;rounded=0;orthogonalLoop=1;jettySize=auto;html=1;" parent="WIyWlLk6GJQsqaUBKTNV-1" source="Tss-41l0JrVJTf4lP66e-11" target="Tss-41l0JrVJTf4lP66e-15" edge="1">
          <mxGeometry relative="1" as="geometry" />
        </mxCell>
        <mxCell id="Tss-41l0JrVJTf4lP66e-20" value="" style="edgeStyle=orthogonalEdgeStyle;rounded=0;orthogonalLoop=1;jettySize=auto;html=1;" parent="WIyWlLk6GJQsqaUBKTNV-1" source="Tss-41l0JrVJTf4lP66e-11" target="Tss-41l0JrVJTf4lP66e-19" edge="1">
          <mxGeometry relative="1" as="geometry" />
        </mxCell>
        <mxCell id="Tss-41l0JrVJTf4lP66e-11" value="Money" style="whiteSpace=wrap;html=1;rounded=0;" parent="WIyWlLk6GJQsqaUBKTNV-1" vertex="1">
          <mxGeometry x="10" y="555" width="120" height="60" as="geometry" />
        </mxCell>
        <mxCell id="Tss-41l0JrVJTf4lP66e-18" value="" style="edgeStyle=orthogonalEdgeStyle;rounded=0;orthogonalLoop=1;jettySize=auto;html=1;" parent="WIyWlLk6GJQsqaUBKTNV-1" source="Tss-41l0JrVJTf4lP66e-13" target="Tss-41l0JrVJTf4lP66e-17" edge="1">
          <mxGeometry relative="1" as="geometry" />
        </mxCell>
        <mxCell id="Tss-41l0JrVJTf4lP66e-13" value="Gift" style="whiteSpace=wrap;html=1;rounded=0;" parent="WIyWlLk6GJQsqaUBKTNV-1" vertex="1">
          <mxGeometry x="260" y="555" width="120" height="60" as="geometry" />
        </mxCell>
        <mxCell id="Tss-41l0JrVJTf4lP66e-15" value="Online" style="rhombus;whiteSpace=wrap;html=1;rounded=0;" parent="WIyWlLk6GJQsqaUBKTNV-1" vertex="1">
          <mxGeometry y="630" width="80" height="80" as="geometry" />
        </mxCell>
        <mxCell id="Tss-41l0JrVJTf4lP66e-17" value="Gift Photo/Price" style="whiteSpace=wrap;html=1;rounded=0;" parent="WIyWlLk6GJQsqaUBKTNV-1" vertex="1">
          <mxGeometry x="260" y="660" width="120" height="60" as="geometry" />
        </mxCell>
        <mxCell id="Tss-41l0JrVJTf4lP66e-19" value="Cash" style="rhombus;whiteSpace=wrap;html=1;rounded=0;" parent="WIyWlLk6GJQsqaUBKTNV-1" vertex="1">
          <mxGeometry x="100" y="630" width="80" height="80" as="geometry" />
        </mxCell>
        <mxCell id="Tss-41l0JrVJTf4lP66e-21" value="" style="edgeStyle=orthogonalEdgeStyle;rounded=0;orthogonalLoop=1;jettySize=auto;html=1;" parent="WIyWlLk6GJQsqaUBKTNV-1" source="Tss-41l0JrVJTf4lP66e-22" target="Tss-41l0JrVJTf4lP66e-26" edge="1">
          <mxGeometry relative="1" as="geometry" />
        </mxCell>
        <mxCell id="Tss-41l0JrVJTf4lP66e-22" value="Relatives" style="rounded=0;whiteSpace=wrap;html=1;" parent="WIyWlLk6GJQsqaUBKTNV-1" vertex="1">
          <mxGeometry x="580" y="210" width="120" height="60" as="geometry" />
        </mxCell>
        <mxCell id="Tss-41l0JrVJTf4lP66e-68" style="edgeStyle=orthogonalEdgeStyle;rounded=0;orthogonalLoop=1;jettySize=auto;html=1;exitX=0.5;exitY=1;exitDx=0;exitDy=0;entryX=1;entryY=0.5;entryDx=0;entryDy=0;" parent="WIyWlLk6GJQsqaUBKTNV-1" source="Tss-41l0JrVJTf4lP66e-23" target="Tss-41l0JrVJTf4lP66e-26" edge="1">
          <mxGeometry relative="1" as="geometry" />
        </mxCell>
        <mxCell id="Tss-41l0JrVJTf4lP66e-23" value="Others" style="rounded=0;whiteSpace=wrap;html=1;" parent="WIyWlLk6GJQsqaUBKTNV-1" vertex="1">
          <mxGeometry x="760" y="210" width="120" height="60" as="geometry" />
        </mxCell>
        <mxCell id="Tss-41l0JrVJTf4lP66e-26" value="Members" style="ellipse;whiteSpace=wrap;html=1;rounded=0;" parent="WIyWlLk6GJQsqaUBKTNV-1" vertex="1">
          <mxGeometry x="600" y="340" width="80" height="80" as="geometry" />
        </mxCell>
        <mxCell id="Tss-41l0JrVJTf4lP66e-40" value="" style="edgeStyle=orthogonalEdgeStyle;rounded=0;orthogonalLoop=1;jettySize=auto;html=1;" parent="WIyWlLk6GJQsqaUBKTNV-1" source="Tss-41l0JrVJTf4lP66e-9" target="Tss-41l0JrVJTf4lP66e-38" edge="1">
          <mxGeometry relative="1" as="geometry">
            <mxPoint x="190" y="420" as="sourcePoint" />
            <mxPoint x="170" y="585" as="targetPoint" />
          </mxGeometry>
        </mxCell>
        <mxCell id="Tss-41l0JrVJTf4lP66e-38" value="Events" style="whiteSpace=wrap;html=1;rounded=0;" parent="WIyWlLk6GJQsqaUBKTNV-1" vertex="1">
          <mxGeometry x="140" y="465" width="120" height="60" as="geometry" />
        </mxCell>
        <mxCell id="Tss-41l0JrVJTf4lP66e-41" style="edgeStyle=orthogonalEdgeStyle;rounded=0;orthogonalLoop=1;jettySize=auto;html=1;exitX=0.5;exitY=1;exitDx=0;exitDy=0;" parent="WIyWlLk6GJQsqaUBKTNV-1" source="Tss-41l0JrVJTf4lP66e-17" target="Tss-41l0JrVJTf4lP66e-17" edge="1">
          <mxGeometry relative="1" as="geometry" />
        </mxCell>
        <mxCell id="Tss-41l0JrVJTf4lP66e-49" value="" style="edgeStyle=orthogonalEdgeStyle;rounded=0;orthogonalLoop=1;jettySize=auto;html=1;exitX=0;exitY=0.5;exitDx=0;exitDy=0;" parent="WIyWlLk6GJQsqaUBKTNV-1" source="Tss-41l0JrVJTf4lP66e-61" target="Tss-41l0JrVJTf4lP66e-54" edge="1">
          <mxGeometry relative="1" as="geometry" />
        </mxCell>
        <mxCell id="Tss-41l0JrVJTf4lP66e-50" value="" style="edgeStyle=orthogonalEdgeStyle;rounded=0;orthogonalLoop=1;jettySize=auto;html=1;exitX=1;exitY=0.5;exitDx=0;exitDy=0;" parent="WIyWlLk6GJQsqaUBKTNV-1" source="Tss-41l0JrVJTf4lP66e-61" target="Tss-41l0JrVJTf4lP66e-56" edge="1">
          <mxGeometry relative="1" as="geometry" />
        </mxCell>
        <mxCell id="Tss-41l0JrVJTf4lP66e-52" value="" style="edgeStyle=orthogonalEdgeStyle;rounded=0;orthogonalLoop=1;jettySize=auto;html=1;" parent="WIyWlLk6GJQsqaUBKTNV-1" source="Tss-41l0JrVJTf4lP66e-54" target="Tss-41l0JrVJTf4lP66e-57" edge="1">
          <mxGeometry relative="1" as="geometry" />
        </mxCell>
        <mxCell id="Tss-41l0JrVJTf4lP66e-53" value="" style="edgeStyle=orthogonalEdgeStyle;rounded=0;orthogonalLoop=1;jettySize=auto;html=1;" parent="WIyWlLk6GJQsqaUBKTNV-1" source="Tss-41l0JrVJTf4lP66e-54" target="Tss-41l0JrVJTf4lP66e-59" edge="1">
          <mxGeometry relative="1" as="geometry" />
        </mxCell>
        <mxCell id="Tss-41l0JrVJTf4lP66e-54" value="Money" style="whiteSpace=wrap;html=1;rounded=0;" parent="WIyWlLk6GJQsqaUBKTNV-1" vertex="1">
          <mxGeometry x="460" y="560" width="120" height="60" as="geometry" />
        </mxCell>
        <mxCell id="Tss-41l0JrVJTf4lP66e-55" value="" style="edgeStyle=orthogonalEdgeStyle;rounded=0;orthogonalLoop=1;jettySize=auto;html=1;" parent="WIyWlLk6GJQsqaUBKTNV-1" source="Tss-41l0JrVJTf4lP66e-56" target="Tss-41l0JrVJTf4lP66e-58" edge="1">
          <mxGeometry relative="1" as="geometry" />
        </mxCell>
        <mxCell id="Tss-41l0JrVJTf4lP66e-56" value="Gift" style="whiteSpace=wrap;html=1;rounded=0;" parent="WIyWlLk6GJQsqaUBKTNV-1" vertex="1">
          <mxGeometry x="730" y="560" width="120" height="60" as="geometry" />
        </mxCell>
        <mxCell id="Tss-41l0JrVJTf4lP66e-57" value="Online" style="rhombus;whiteSpace=wrap;html=1;rounded=0;" parent="WIyWlLk6GJQsqaUBKTNV-1" vertex="1">
          <mxGeometry x="430" y="660" width="80" height="80" as="geometry" />
        </mxCell>
        <mxCell id="Tss-41l0JrVJTf4lP66e-58" value="Gift Photo/Price" style="whiteSpace=wrap;html=1;rounded=0;" parent="WIyWlLk6GJQsqaUBKTNV-1" vertex="1">
          <mxGeometry x="730" y="660" width="120" height="60" as="geometry" />
        </mxCell>
        <mxCell id="Tss-41l0JrVJTf4lP66e-59" value="Cash" style="rhombus;whiteSpace=wrap;html=1;rounded=0;" parent="WIyWlLk6GJQsqaUBKTNV-1" vertex="1">
          <mxGeometry x="520" y="660" width="80" height="80" as="geometry" />
        </mxCell>
        <mxCell id="Tss-41l0JrVJTf4lP66e-61" value="Events" style="whiteSpace=wrap;html=1;rounded=0;" parent="WIyWlLk6GJQsqaUBKTNV-1" vertex="1">
          <mxGeometry x="580" y="470" width="120" height="60" as="geometry" />
        </mxCell>
        <mxCell id="Tss-41l0JrVJTf4lP66e-62" style="edgeStyle=orthogonalEdgeStyle;rounded=0;orthogonalLoop=1;jettySize=auto;html=1;exitX=0.5;exitY=1;exitDx=0;exitDy=0;" parent="WIyWlLk6GJQsqaUBKTNV-1" source="Tss-41l0JrVJTf4lP66e-58" target="Tss-41l0JrVJTf4lP66e-58" edge="1">
          <mxGeometry relative="1" as="geometry" />
        </mxCell>
        <mxCell id="Tss-41l0JrVJTf4lP66e-64" style="edgeStyle=orthogonalEdgeStyle;rounded=0;orthogonalLoop=1;jettySize=auto;html=1;exitX=0;exitY=0.5;exitDx=0;exitDy=0;entryX=0.5;entryY=0;entryDx=0;entryDy=0;" parent="WIyWlLk6GJQsqaUBKTNV-1" source="Tss-41l0JrVJTf4lP66e-63" target="Tss-41l0JrVJTf4lP66e-1" edge="1">
          <mxGeometry relative="1" as="geometry" />
        </mxCell>
        <mxCell id="Tss-41l0JrVJTf4lP66e-63" value="Me" style="rounded=0;whiteSpace=wrap;html=1;" parent="WIyWlLk6GJQsqaUBKTNV-1" vertex="1">
          <mxGeometry x="470" y="-20" width="120" height="60" as="geometry" />
        </mxCell>
        <mxCell id="Tss-41l0JrVJTf4lP66e-65" style="edgeStyle=orthogonalEdgeStyle;rounded=0;orthogonalLoop=1;jettySize=auto;html=1;exitX=1;exitY=0.5;exitDx=0;exitDy=0;entryX=0.583;entryY=0;entryDx=0;entryDy=0;entryPerimeter=0;" parent="WIyWlLk6GJQsqaUBKTNV-1" source="Tss-41l0JrVJTf4lP66e-63" target="Tss-41l0JrVJTf4lP66e-2" edge="1">
          <mxGeometry relative="1" as="geometry" />
        </mxCell>
        <mxCell id="Tss-41l0JrVJTf4lP66e-70" style="edgeStyle=orthogonalEdgeStyle;rounded=0;orthogonalLoop=1;jettySize=auto;html=1;exitX=0.5;exitY=1;exitDx=0;exitDy=0;entryX=0.5;entryY=0.04;entryDx=0;entryDy=0;entryPerimeter=0;" parent="WIyWlLk6GJQsqaUBKTNV-1" source="Tss-41l0JrVJTf4lP66e-26" target="Tss-41l0JrVJTf4lP66e-61" edge="1">
          <mxGeometry relative="1" as="geometry" />
        </mxCell>
      </root>
    </mxGraphModel>
  </diagram>
</mxfile>
